<svg width="25" height="18" viewBox="0 0 25 18" fill="none" xmlns="http://www.w3.org/2000/svg">
<path d="M19.4258 16.7324C19.707 17.0049 20.1377 17.0225 20.4189 16.7324C20.709 16.4336 20.6914 16.0117 20.4189 15.7393L5.53027 0.868164C5.2666 0.595703 4.80957 0.586914 4.53711 0.868164C4.27344 1.13184 4.27344 1.58887 4.53711 1.85254L19.4258 16.7324ZM12.5 1.36914C10.9707 1.36914 9.58203 1.63281 8.29004 2.05469L9.69629 3.46094C10.584 3.20605 11.5068 3.05664 12.5 3.05664C18.1162 3.05664 22.5811 7.94336 22.5811 8.97168C22.5811 9.66602 21.1572 11.459 18.8984 12.874L20.1992 14.1836C22.959 12.373 24.5674 10.0088 24.5674 8.97168C24.5674 7.16992 19.707 1.36914 12.5 1.36914ZM12.5 16.583C14.126 16.583 15.6113 16.3018 16.9561 15.8359L15.5586 14.4385C14.6006 14.7197 13.5898 14.8955 12.5 14.8955C6.88379 14.8955 2.41895 10.2021 2.41895 8.97168C2.41895 8.38281 3.91309 6.47559 6.32129 4.99902L4.99414 3.67188C2.12012 5.5 0.423828 7.91699 0.423828 8.97168C0.423828 10.7734 5.38965 16.583 12.5 16.583ZM16.8857 10.668C17.1143 10.1494 17.2461 9.56934 17.2461 8.97168C17.2461 6.32617 15.1367 4.24316 12.5 4.24316C11.8936 4.24316 11.3223 4.35742 10.7949 4.57715L16.8857 10.668ZM12.5 13.709C13.1855 13.709 13.8271 13.5508 14.3984 13.2783L8.18457 7.05566C7.90332 7.63574 7.74512 8.27734 7.74512 8.98047C7.75391 11.5557 9.85449 13.709 12.5 13.709Z" fill="black"/>
</svg>
