<svg width="270" height="280" viewBox="0 0 270 280" fill="none" xmlns="http://www.w3.org/2000/svg">
<ellipse cx="118.598" cy="31.4858" rx="35.9486" ry="31.4858" fill="#8C1407"/>
<ellipse cx="75.3393" cy="67.0526" rx="35.3393" ry="34.4012" fill="#8C1407"/>
<ellipse cx="161.86" cy="67.0526" rx="35.3393" ry="34.4012" fill="#8C1407"/>
<rect x="68.0273" y="57.1411" width="101.144" height="68.8024" rx="2" fill="#8C1407"/>
<line x1="69.8711" y1="140.128" x2="166.956" y2="140.128" stroke="#8C1407" stroke-width="11"/>
<path d="M69.8711 153.096H166.956V165.5C166.956 171.023 162.479 175.5 156.956 175.5H79.8711C74.3482 175.5 69.8711 171.023 69.8711 165.5V153.096Z" fill="#8C1407"/>
<path d="M35.9506 233.592C36.594 234.357 37.0447 234.974 37.3027 235.442C37.5608 235.911 37.6907 236.358 37.6926 236.785C37.6948 237.297 37.3561 237.895 36.6764 238.581C36.0394 239.267 35.4009 239.611 34.7609 239.613C33.9075 239.617 33.2243 239.492 32.7112 239.238C32.1981 238.985 31.7697 238.581 31.4259 238.028C30.7388 237.007 29.903 236.136 28.9185 235.415C27.9338 234.651 26.3962 234.274 24.3055 234.283C22.5136 234.291 20.4673 234.705 18.1669 235.526C15.9091 236.346 14.2922 237.356 13.316 238.555C12.4674 239.625 11.7278 241.25 11.0973 243.429C10.5094 245.607 10.2199 247.72 10.2289 249.768C10.2396 252.243 10.7829 254.523 11.8587 256.609C12.9769 258.653 14.5627 260.288 16.6161 261.517C18.7121 262.745 21.2108 263.353 24.1121 263.34C25.6908 263.333 27.3108 263.027 28.9722 262.423C30.676 261.775 32.1435 260.745 33.3747 259.332L33.3107 259.332C34.0752 258.518 35.0334 258.108 36.1854 258.103C36.8681 258.1 37.5094 258.396 38.1093 258.991C38.7519 259.586 39.0745 260.182 39.0771 260.779C39.0799 261.419 38.9757 261.995 38.7646 262.508C38.596 262.978 38.257 263.513 37.7476 264.113C36.0068 266.083 33.9434 267.436 31.5572 268.172C29.1711 268.907 26.314 269.283 22.986 269.297C20.0421 269.31 17.0524 268.619 14.0169 267.224C11.0242 265.829 8.71274 264.132 7.08269 262.134C6.22398 260.901 5.38427 259.134 4.56358 256.833C3.78536 254.49 3.3931 252.593 3.38678 251.142C3.37061 247.43 3.90994 243.908 5.00477 240.575C6.14207 237.199 7.83702 234.504 10.0896 232.489C11.577 231.117 13.7272 230.084 16.5402 229.389C19.3532 228.694 21.933 228.341 24.2796 228.331C27.1383 228.319 29.38 228.714 31.0049 229.518C32.6722 230.278 34.3208 231.637 35.9506 233.592ZM52.3495 228.465C52.3543 229.574 52.3386 230.875 52.3025 232.369C52.2661 233.82 52.2283 234.929 52.189 235.697C52.0704 237.874 52.0159 240.05 52.0254 242.226C52.0325 243.848 52.1038 245.533 52.2394 247.281C53.5537 245.356 54.9769 243.941 56.509 243.039C58.0411 242.136 59.8951 241.68 62.0711 241.671C63.6497 241.664 65.1248 242.361 66.4962 243.763C67.8677 245.165 68.7495 246.804 69.1417 248.68C69.2769 250.343 69.3498 252.37 69.3602 254.759C69.3668 256.295 69.4609 258.3 69.6424 260.774C69.7318 261.712 69.9703 262.586 70.3578 263.395C70.788 264.203 71.3871 264.606 72.1551 264.603C72.5391 264.601 72.8376 264.578 73.0508 264.535C73.3066 264.491 73.5412 264.469 73.7545 264.468C74.3518 264.465 74.7578 264.613 74.9724 264.911C75.2297 265.208 75.3596 265.634 75.362 266.189C75.3665 267.213 74.8578 267.983 73.8361 268.5C72.8143 269.016 71.8767 269.276 71.0234 269.28C67.9515 269.293 65.8339 268.022 64.6708 265.467C64.0244 264.02 63.6109 262.144 63.4302 259.841C63.2494 257.495 63.1521 254.765 63.1386 251.65C63.1252 248.578 62.0732 247.047 59.9825 247.056C58.8305 247.061 57.6599 247.684 56.4706 248.927C55.3238 250.127 54.3708 251.731 53.6116 253.739C52.8521 255.705 52.477 257.755 52.4863 259.888L52.5793 266.544C52.5834 267.483 52.2238 268.188 51.5005 268.661C50.7771 269.091 50.0953 269.307 49.4553 269.31C48.5167 269.314 47.6622 269.04 46.8917 268.489C46.1212 267.895 45.7343 267.235 45.7311 266.51C46.0158 263.309 46.1419 257.953 46.1091 250.444C46.1032 249.079 45.9745 244.023 45.7231 235.278L45.5054 229.391C45.5013 228.452 45.9245 227.639 46.7748 226.953C47.625 226.224 48.5834 225.857 49.6501 225.852C50.5887 225.848 51.2723 226.059 51.7008 226.484C52.1294 226.908 52.3456 227.569 52.3495 228.465ZM78.6484 255.358C78.6413 253.737 78.9329 252.114 79.5232 250.491C80.1132 248.824 80.896 247.306 81.8713 245.936C82.8467 244.567 84.3992 243.451 86.5288 242.588C88.6582 241.683 90.5549 241.226 92.2189 241.219C93.9256 241.212 95.6546 241.439 97.4059 241.901C99.1999 242.362 100.44 243.082 101.127 244.06C102.716 246.272 103.514 248.445 103.524 250.578C103.529 251.73 103.277 252.712 102.769 253.525C102.303 254.338 101.624 255.216 100.732 256.158C100.01 256.929 98.8603 257.446 97.2828 257.709C95.7479 257.972 94.2125 258.107 92.6765 258.113C91.6952 258.118 90.5001 258.037 89.0914 257.873C87.6825 257.666 86.3161 257.416 84.9921 257.123C85.0812 257.976 85.2981 258.807 85.643 259.616C85.9878 260.425 86.3959 261.042 86.867 261.467C87.7239 262.274 88.6008 262.782 89.4977 262.991C90.4373 263.2 91.6324 263.302 93.0831 263.296C94.6191 263.289 96.0473 263.027 97.3677 262.509C98.4327 262.12 99.3065 261.925 99.9891 261.922C100.8 261.918 101.42 262.171 101.848 262.681C102.277 263.149 102.493 263.767 102.497 264.535C102.501 265.601 101.886 266.479 100.652 267.167C99.4177 267.855 97.9906 268.373 96.3707 268.721C94.7934 269.027 93.514 269.182 92.5327 269.186C90.5274 269.195 88.5845 268.841 86.704 268.123C84.8236 267.406 83.2618 266.389 82.0187 265.072C80.9895 263.882 80.1726 262.456 79.568 260.794C78.9633 259.09 78.6567 257.278 78.6484 255.358ZM92.5626 246.658C91.6239 246.662 90.6861 246.858 89.7491 247.246C88.812 247.591 88.0461 248.085 87.4516 248.728C86.6871 249.542 86.1567 250.206 85.8602 250.719C85.6063 251.189 85.4385 251.851 85.3569 252.705C86.425 253.042 88.6444 253.203 92.015 253.188C93.8497 253.18 95.2565 252.897 96.2354 252.338C97.2569 251.779 97.7658 251.051 97.7619 250.155C97.758 249.259 97.1998 248.451 96.0873 247.73C94.9748 247.01 93.7999 246.652 92.5626 246.658ZM122.739 231.038C121.459 231.044 120.674 232.114 120.385 234.248C120.099 237.151 119.959 239.349 119.966 240.842C120.819 240.924 121.715 240.963 122.654 240.959C123.251 240.956 124.019 240.91 124.957 240.821L126.621 240.749C127.475 240.746 128.115 240.892 128.543 241.189C128.971 241.486 129.187 241.976 129.19 242.658C129.194 243.597 128.877 244.409 128.24 245.094C127.646 245.737 126.943 246.06 126.132 246.064C123.06 246.077 120.992 246.235 119.926 246.539C119.938 249.141 120.082 252.831 120.359 257.609L120.5 260.744L120.778 265.735C120.869 266.972 120.744 267.847 120.405 268.361C120.109 268.831 119.448 269.069 118.424 269.073C116.547 269.081 115.326 267.956 114.762 265.697C114.413 264.035 114.126 261.711 113.899 258.725C113.673 255.739 113.555 253.073 113.545 250.726C113.539 249.489 113.597 248.081 113.718 246.502C113.633 246.459 113.398 246.439 113.014 246.441C112.63 246.442 112.353 246.465 112.182 246.508C110.903 246.599 109.964 246.646 109.367 246.649C108.983 246.65 108.598 246.396 108.211 245.886C107.825 245.333 107.63 244.672 107.627 243.904C107.625 243.477 107.773 243.093 108.07 242.75C108.367 242.365 108.728 242.086 109.154 241.913C109.793 241.569 110.709 241.395 111.904 241.389L113.824 241.445C113.798 235.386 114.462 231.181 115.817 228.828C117.087 226.604 119.195 225.486 122.139 225.473C123.845 225.465 125.404 225.885 126.816 226.732C127.415 227.114 127.865 227.581 128.166 228.134C128.51 228.688 128.683 229.22 128.685 229.732C128.688 230.372 128.435 231.035 127.926 231.72C127.46 232.404 126.736 232.749 125.754 232.753C125.37 232.755 124.878 232.458 124.278 231.863C124.064 231.651 123.829 231.46 123.572 231.291C123.315 231.121 123.038 231.037 122.739 231.038ZM178.681 238.859C178.04 238.435 177.419 237.947 176.819 237.395C175.278 236.207 173.973 235.338 172.904 234.788C171.834 234.195 170.638 233.902 169.316 233.907C167.438 233.915 165.562 234.158 163.687 234.636C161.854 235.113 160.343 235.781 159.152 236.64C157.365 237.97 156.157 239.725 155.526 241.903C154.896 244.04 154.587 246.665 154.601 249.78C154.615 253.065 155.652 255.983 157.711 258.534C158.954 259.937 160.452 261.018 162.205 261.779C164 262.539 165.794 262.915 167.586 262.907C171.725 262.889 174.792 261.724 176.787 259.411C178.23 257.57 178.945 255.327 178.934 252.682C178.932 252.212 178.589 251.894 177.905 251.726C177.222 251.558 176.24 251.477 174.96 251.483C174.32 251.486 173.317 251.405 171.951 251.24C171.567 251.199 171.14 251.158 170.671 251.118C170.244 251.077 169.796 251.057 169.326 251.059C168.089 251.065 167.107 250.834 166.379 250.368C165.652 249.902 165.287 249.306 165.284 248.581C165.279 247.557 165.617 246.809 166.298 246.337C166.978 245.822 167.895 245.562 169.047 245.557C170.369 245.551 172.396 245.627 175.128 245.786C177.688 245.946 179.502 246.023 180.569 246.018C182.062 246.012 183.259 246.476 184.159 247.411C185.101 248.345 185.577 249.709 185.585 251.501C185.592 253.165 185.238 255.107 184.522 257.329C183.806 259.551 182.791 261.54 181.476 263.295C180.204 265.05 178.311 266.402 175.798 267.351C173.327 268.301 170.598 268.782 167.612 268.795C165.18 268.806 162.767 268.389 160.374 267.547C157.981 266.661 155.97 265.475 154.343 263.989C152.372 262.163 150.805 259.994 149.642 257.481C148.522 254.926 147.956 252.39 147.945 249.873C147.928 245.99 148.595 242.36 149.946 238.984C151.339 235.564 153.461 232.91 156.311 231.02C157.587 230.161 159.547 229.448 162.19 228.882C164.833 228.316 167.157 228.029 169.162 228.02C171.978 228.008 174.541 228.615 176.85 229.842C179.16 231.07 180.958 232.598 182.246 234.427C182.762 235.193 183.02 235.874 183.023 236.472C183.026 237.154 182.73 237.796 182.135 238.396C181.541 238.995 180.945 239.297 180.347 239.299C180.091 239.3 179.793 239.259 179.451 239.175C179.109 239.091 178.853 238.986 178.681 238.859ZM210.199 253.889C208.577 253.896 207.191 253.86 206.038 253.78C204.928 253.656 203.455 253.471 201.62 253.223C201.628 255.057 201.595 257.298 201.521 259.943L201.478 264.872C201.483 265.981 201.188 266.857 200.594 267.499C199.999 268.099 199.296 268.401 198.486 268.405C197.078 268.411 196.032 268.245 195.348 267.906C194.706 267.525 194.383 266.865 194.379 265.926C194.372 264.262 194.449 262.513 194.612 260.677C195.105 256.238 195.339 251.245 195.315 245.698C195.298 241.816 195.175 238.168 194.947 234.756C194.221 234.46 193.579 234.079 193.022 233.612C192.508 233.145 192.229 232.677 192.184 232.208C192.179 231.098 192.581 230.201 193.388 229.514C194.196 228.828 195.432 228.481 197.096 228.474C198.461 228.468 200.146 228.354 202.15 228.132C202.62 228.088 203.43 228.02 204.582 227.93C205.733 227.839 206.736 227.792 207.589 227.789C211.088 227.773 213.798 228.103 215.721 228.777C217.687 229.451 219.655 230.573 221.624 232.143C223.772 235.462 224.849 237.804 224.855 239.169C224.874 243.564 223.588 247.111 220.997 249.81C218.449 252.509 214.849 253.869 210.199 253.889ZM208.701 233.224C207.335 233.23 206.12 233.32 205.054 233.496C204.03 233.628 202.837 233.868 201.473 234.215C201.701 237.5 201.82 240.358 201.83 242.79C201.838 244.624 201.781 246.161 201.658 247.399C203.495 247.775 204.925 248.024 205.95 248.148C207.017 248.229 208.212 248.266 209.534 248.26C212.691 248.247 214.907 247.426 216.18 245.799C217.495 244.172 218.148 242.249 218.138 240.031C218.136 239.391 217.94 238.602 217.552 237.665C217.207 236.728 216.884 236.111 216.584 235.813C215.428 234.794 214.294 234.117 213.183 233.78C212.072 233.401 210.578 233.216 208.701 233.224ZM226.993 230.968C226.985 229.133 228.325 228.21 231.013 228.199C232.164 228.193 234.362 228.227 237.605 228.298C241.19 228.453 243.899 228.526 245.734 228.518C247.227 228.512 249.04 228.419 251.173 228.239C252.623 228.147 253.54 228.1 253.924 228.099C256.271 228.174 258.257 228.592 259.882 229.353C260.352 229.564 260.737 229.818 261.037 230.116C261.337 230.413 261.489 230.903 261.492 231.586C261.496 232.524 261.201 233.336 260.606 234.022C260.012 234.664 259.288 234.987 258.434 234.991C257.496 234.995 256.13 234.873 254.337 234.625C252.757 234.333 251.369 234.19 250.175 234.195C249.023 234.2 248.148 234.225 247.551 234.271C247.429 235.679 247.38 239.05 247.403 244.383C247.431 250.741 247.651 257.182 248.063 263.709L248.199 265.564C248.207 267.313 247.208 268.192 245.203 268.201C243.624 268.208 242.556 267.85 241.998 267.127C241.44 266.361 241.158 265.211 241.151 263.675C241.138 260.645 241.036 256.87 240.846 252.348C240.659 248.594 240.562 245.928 240.555 244.349C240.55 243.282 240.664 240.018 240.896 234.556L233.409 234.652C231.019 234.663 229.354 234.456 228.414 234.034C227.473 233.569 226.999 232.547 226.993 230.968Z" fill="#8C1407"/>
</svg>
